<svg width="20" height="20" viewBox="0 0 20 20" fill="none" xmlns="http://www.w3.org/2000/svg">
<path id="Vector" d="M12.0165 10L19.5646 2.45182C19.7008 2.32027 19.8095 2.16291 19.8842 1.98893C19.959 1.81494 19.9983 1.62781 19.9999 1.43846C20.0016 1.24911 19.9655 1.06132 19.8938 0.886065C19.8221 0.710806 19.7162 0.551583 19.5823 0.417685C19.4484 0.283788 19.2892 0.177898 19.1139 0.106194C18.9387 0.0344901 18.7509 -0.00159158 18.5615 5.38441e-05C18.3722 0.00169926 18.1851 0.0410392 18.0111 0.115778C17.8371 0.190517 17.6797 0.299158 17.5482 0.435362L10 7.98354L2.45182 0.435362C2.18286 0.175592 1.82263 0.031852 1.44872 0.0351012C1.07481 0.0383503 0.717138 0.188329 0.452733 0.452733C0.188329 0.717138 0.0383503 1.07481 0.0351012 1.44872C0.031852 1.82263 0.175592 2.18286 0.435362 2.45182L7.98354 10L0.435362 17.5482C0.299158 17.6797 0.190517 17.8371 0.115778 18.0111C0.0410392 18.1851 0.00169926 18.3722 5.38441e-05 18.5615C-0.00159158 18.7509 0.0344901 18.9387 0.106194 19.1139C0.177898 19.2892 0.283788 19.4484 0.417685 19.5823C0.551583 19.7162 0.710806 19.8221 0.886065 19.8938C1.06132 19.9655 1.24911 20.0016 1.43846 19.9999C1.62781 19.9983 1.81494 19.959 1.98893 19.8842C2.16291 19.8095 2.32027 19.7008 2.45182 19.5646L10 12.0165L17.5482 19.5646C17.8171 19.8244 18.1774 19.9681 18.5513 19.9649C18.9252 19.9616 19.2829 19.8117 19.5473 19.5473C19.8117 19.2829 19.9616 18.9252 19.9649 18.5513C19.9681 18.1774 19.8244 17.8171 19.5646 17.5482L12.0165 10Z" fill="#1F2A37"/>
</svg>
