<svg width="16" height="16" viewBox="0 0 16 16" fill="none" xmlns="http://www.w3.org/2000/svg">
<g id="Vector">
<path d="M15.2 3.2H14.4C14.1878 3.2 13.9843 3.28429 13.8343 3.43431C13.6843 3.58434 13.6 3.78783 13.6 4C13.6 4.21217 13.6843 4.41566 13.8343 4.56569C13.9843 4.71571 14.1878 4.8 14.4 4.8V13.6C14.4 13.8122 14.3157 14.0157 14.1657 14.1657C14.0157 14.3157 13.8122 14.4 13.6 14.4C13.3878 14.4 13.1843 14.3157 13.0343 14.1657C12.8843 14.0157 12.8 13.8122 12.8 13.6V1.6C12.8 1.17565 12.6314 0.768687 12.3314 0.468629C12.0313 0.168571 11.6243 0 11.2 0H1.6C1.17565 0 0.768687 0.168571 0.468629 0.468629C0.168571 0.768687 0 1.17565 0 1.6V13.6C0 14.2365 0.252856 14.847 0.702944 15.2971C1.15303 15.7471 1.76348 16 2.4 16H13.6C14.2365 16 14.847 15.7471 15.2971 15.2971C15.7471 14.847 16 14.2365 16 13.6V4C16 3.78783 15.9157 3.58434 15.7657 3.43431C15.6157 3.28429 15.4122 3.2 15.2 3.2ZM2.4 14.4C2.18783 14.4 1.98434 14.3157 1.83431 14.1657C1.68429 14.0157 1.6 13.8122 1.6 13.6V1.6H11.2V13.6C11.2 13.8725 11.2462 14.143 11.3368 14.4H2.4Z" fill="#241050"/>
<path d="M3.2 6.4H5.6C5.81217 6.4 6.01566 6.31571 6.16569 6.16569C6.31571 6.01566 6.4 5.81217 6.4 5.6V3.2C6.4 2.98783 6.31571 2.78434 6.16569 2.63431C6.01566 2.48429 5.81217 2.4 5.6 2.4H3.2C2.98783 2.4 2.78434 2.48429 2.63431 2.63431C2.48429 2.78434 2.4 2.98783 2.4 3.2V5.6C2.4 5.81217 2.48429 6.01566 2.63431 6.16569C2.78434 6.31571 2.98783 6.4 3.2 6.4ZM4 4H4.8V4.8H4V4Z" fill="#241050"/>
<path d="M9.6 2.4H8C7.78783 2.4 7.58434 2.48429 7.43431 2.63431C7.28429 2.78434 7.2 2.98783 7.2 3.2C7.2 3.41217 7.28429 3.61566 7.43431 3.76569C7.58434 3.91571 7.78783 4 8 4H9.6C9.81217 4 10.0157 3.91571 10.1657 3.76569C10.3157 3.61566 10.4 3.41217 10.4 3.2C10.4 2.98783 10.3157 2.78434 10.1657 2.63431C10.0157 2.48429 9.81217 2.4 9.6 2.4Z" fill="#241050"/>
<path d="M9.6 4.8H8C7.78783 4.8 7.58434 4.88429 7.43431 5.03431C7.28429 5.18434 7.2 5.38783 7.2 5.6C7.2 5.81217 7.28429 6.01566 7.43431 6.16569C7.58434 6.31571 7.78783 6.4 8 6.4H9.6C9.81217 6.4 10.0157 6.31571 10.1657 6.16569C10.3157 6.01566 10.4 5.81217 10.4 5.6C10.4 5.38783 10.3157 5.18434 10.1657 5.03431C10.0157 4.88429 9.81217 4.8 9.6 4.8Z" fill="#241050"/>
<path d="M9.6 7.2H3.2C2.98783 7.2 2.78434 7.28429 2.63431 7.43431C2.48429 7.58434 2.4 7.78783 2.4 8C2.4 8.21217 2.48429 8.41566 2.63431 8.56569C2.78434 8.71571 2.98783 8.8 3.2 8.8H9.6C9.81217 8.8 10.0157 8.71571 10.1657 8.56569C10.3157 8.41566 10.4 8.21217 10.4 8C10.4 7.78783 10.3157 7.58434 10.1657 7.43431C10.0157 7.28429 9.81217 7.2 9.6 7.2Z" fill="#241050"/>
<path d="M9.6 9.6H3.2C2.98783 9.6 2.78434 9.68429 2.63431 9.83432C2.48429 9.98434 2.4 10.1878 2.4 10.4C2.4 10.6122 2.48429 10.8157 2.63431 10.9657C2.78434 11.1157 2.98783 11.2 3.2 11.2H9.6C9.81217 11.2 10.0157 11.1157 10.1657 10.9657C10.3157 10.8157 10.4 10.6122 10.4 10.4C10.4 10.1878 10.3157 9.98434 10.1657 9.83432C10.0157 9.68429 9.81217 9.6 9.6 9.6Z" fill="#241050"/>
<path d="M9.6 12H3.2C2.98783 12 2.78434 12.0843 2.63431 12.2343C2.48429 12.3843 2.4 12.5878 2.4 12.8C2.4 13.0122 2.48429 13.2157 2.63431 13.3657C2.78434 13.5157 2.98783 13.6 3.2 13.6H9.6C9.81217 13.6 10.0157 13.5157 10.1657 13.3657C10.3157 13.2157 10.4 13.0122 10.4 12.8C10.4 12.5878 10.3157 12.3843 10.1657 12.2343C10.0157 12.0843 9.81217 12 9.6 12Z" fill="#241050"/>
</g>
</svg>
