<svg width="500" height="164" viewBox="0 0 500 164" fill="none" xmlns="http://www.w3.org/2000/svg">
<path d="M500 0H0V163.133H500V0Z" fill="#241050"/>
<mask id="mask0_13_113" style="mask-type:luminance" maskUnits="userSpaceOnUse" x="0" y="0" width="500" height="164">
<path d="M500 0H0V163.133H500V0Z" fill="white"/>
</mask>
<g mask="url(#mask0_13_113)">
<path d="M217.342 61.7625C215.002 59.4225 215.002 55.3075 217.342 53.0375C219.682 50.6975 223.797 50.6975 226.14 53.0375C228.48 55.3075 228.48 59.4225 226.14 61.7625C223.797 64.1025 219.682 64.1025 217.342 61.7625ZM226.705 106.525H216.702V67.8625H226.705V106.525Z" fill="white"/>
</g>
<mask id="mask1_13_113" style="mask-type:luminance" maskUnits="userSpaceOnUse" x="0" y="0" width="500" height="164">
<path d="M500 0H0V163.133H500V0Z" fill="white"/>
</mask>
<g mask="url(#mask1_13_113)">
<path d="M261.245 104.253C258.052 106.38 254.292 107.445 249.825 107.445C240.957 107.445 236.348 102.195 236.348 92.1925V76.2325H230.035V67.8625H236.42V54.17H246.35V67.8625H259.117V76.2325H246.35V91.555C246.35 96.095 248.195 98.365 251.812 98.365C253.728 98.365 255.927 97.7275 258.267 96.3775L261.245 104.253Z" fill="white"/>
</g>
<mask id="mask2_13_113" style="mask-type:luminance" maskUnits="userSpaceOnUse" x="0" y="0" width="500" height="164">
<path d="M500 0H0V163.133H500V0Z" fill="white"/>
</mask>
<g mask="url(#mask2_13_113)">
<path d="M292.99 67.8625H302.495V106.522H292.99V102.052C289.655 105.67 285.542 107.445 280.647 107.445C275.115 107.445 270.503 105.53 266.885 101.627C263.268 97.725 261.492 92.8325 261.492 87.015C261.492 81.1975 263.337 76.375 266.955 72.615C270.572 68.785 275.182 66.87 280.645 66.87C285.47 66.87 289.582 68.715 292.987 72.475V67.8625H292.99ZM290.01 79.2825C287.953 77.0825 285.397 76.02 282.277 76.02C279.085 76.02 276.533 77.0825 274.475 79.2825C272.49 81.4825 271.495 84.1075 271.495 87.1575C271.495 90.2775 272.488 92.9025 274.545 95.1025C276.603 97.3025 279.157 98.365 282.277 98.365C285.397 98.365 287.953 97.3 290.01 95.1025C292.068 92.9025 293.13 90.2775 293.13 87.1575C293.13 84.1075 292.068 81.4825 290.01 79.2825Z" fill="white"/>
</g>
<mask id="mask3_13_113" style="mask-type:luminance" maskUnits="userSpaceOnUse" x="0" y="0" width="500" height="164">
<path d="M500 0H0V163.133H500V0Z" fill="white"/>
</mask>
<g mask="url(#mask3_13_113)">
<path d="M345.695 72.7575C349.313 76.66 351.085 81.4825 351.085 87.1575C351.085 92.8325 349.24 97.6575 345.622 101.557C342.005 105.46 337.465 107.445 332.003 107.445C327.25 107.445 323.207 105.672 319.872 102.052V122.412H309.87V67.8625H319.8V72.615C323.132 68.785 327.178 66.8675 332.073 66.8675C337.538 66.87 342.078 68.855 345.695 72.7575ZM338.035 95.1025C340.023 92.975 341.015 90.35 341.015 87.2275C341.015 84.105 340.023 81.4825 338.035 79.3525C336.048 77.225 333.495 76.16 330.302 76.16C327.182 76.16 324.628 77.225 322.64 79.3525C320.655 81.48 319.66 84.105 319.66 87.2275C319.66 90.3475 320.653 92.9725 322.64 95.1025C324.628 97.23 327.18 98.295 330.302 98.295C333.495 98.295 336.048 97.23 338.035 95.1025Z" fill="white"/>
</g>
<mask id="mask4_13_113" style="mask-type:luminance" maskUnits="userSpaceOnUse" x="0" y="0" width="500" height="164">
<path d="M500 0H0V163.133H500V0Z" fill="white"/>
</mask>
<g mask="url(#mask4_13_113)">
<path d="M360.06 72.7575C363.962 68.785 368.927 66.8 374.957 66.8C380.987 66.8 385.953 68.7875 389.855 72.7575C393.758 76.66 395.672 81.4825 395.672 87.1575C395.672 92.9025 393.758 97.7275 389.855 101.627C385.953 105.53 380.987 107.515 374.957 107.515C368.927 107.515 363.962 105.53 360.06 101.627C356.157 97.725 354.242 92.9025 354.242 87.1575C354.245 81.4825 356.16 76.6575 360.06 72.7575ZM374.957 98.2225C378.007 98.2225 380.49 97.16 382.547 95.03C384.605 92.83 385.668 90.2075 385.668 87.1575C385.668 84.1075 384.602 81.4825 382.547 79.355C380.49 77.2275 378.007 76.1625 374.957 76.1625C371.907 76.1625 369.353 77.2275 367.295 79.355C365.238 81.4825 364.245 84.1075 364.245 87.1575C364.245 90.2075 365.238 92.8325 367.295 95.03C369.355 97.16 371.907 98.2225 374.957 98.2225Z" fill="white"/>
</g>
<mask id="mask5_13_113" style="mask-type:luminance" maskUnits="userSpaceOnUse" x="0" y="0" width="500" height="164">
<path d="M500 0H0V163.133H500V0Z" fill="white"/>
</mask>
<g mask="url(#mask5_13_113)">
<path d="M400.892 106.522V67.8625H410.47V73.04C412.81 68.855 416.357 66.7975 421.11 66.7975C422.67 66.7975 424.233 67.08 425.793 67.6475L424.94 77.225C423.308 76.73 421.747 76.445 420.33 76.445C414.655 76.445 410.895 80.135 410.895 88.15V106.522H400.892Z" fill="white"/>
</g>
<mask id="mask6_13_113" style="mask-type:luminance" maskUnits="userSpaceOnUse" x="0" y="0" width="500" height="164">
<path d="M500 0H0V163.133H500V0Z" fill="white"/>
</mask>
<g mask="url(#mask6_13_113)">
<path d="M458.57 104.253C455.378 106.38 451.617 107.445 447.15 107.445C438.282 107.445 433.672 102.195 433.672 92.1925V76.2325H427.36V67.8625H433.745V54.17H443.677V67.8625H456.445V76.2325H443.677V91.555C443.677 96.095 445.523 98.365 449.14 98.365C451.055 98.365 453.255 97.7275 455.595 96.3775L458.57 104.253Z" fill="white"/>
</g>
<mask id="mask7_13_113" style="mask-type:luminance" maskUnits="userSpaceOnUse" x="0" y="0" width="500" height="164">
<path d="M500 0H0V163.133H500V0Z" fill="white"/>
</mask>
<g mask="url(#mask7_13_113)">
<path d="M80.1975 97.975L74.3675 117.118C73.525 119.945 71.2325 121.96 68.2825 122.33C67.965 122.38 67.635 122.412 67.305 122.412H67.2025C67.0075 122.412 66.8225 122.402 66.6375 122.382C66.565 122.382 66.4925 122.373 66.4325 122.363C66.2475 122.343 66.0725 122.323 65.8975 122.28C65.785 122.27 65.6725 122.24 65.5675 122.207C65.495 122.197 65.4225 122.188 65.3625 122.155C65.3425 122.155 65.3225 122.155 65.3 122.135C65.1875 122.115 65.075 122.083 64.96 122.043C64.6 121.93 64.24 121.775 63.9125 121.6C63.82 121.56 63.7275 121.507 63.645 121.455C63.5325 121.393 63.42 121.332 63.305 121.25C63.2225 121.2 63.14 121.147 63.0575 121.085C62.82 120.93 62.585 120.745 62.37 120.54C62.2475 120.427 62.1225 120.315 62.01 120.19C62 120.19 62 120.19 62 120.18L61.9475 120.128C61.1775 119.295 60.59 118.277 60.24 117.115L60.045 116.478L42.435 58.6575V58.6475C42.105 57.855 41.84 57.0225 41.675 56.15C41.51 55.3375 41.4275 54.495 41.4275 53.6325C41.4275 46.4975 47.205 40.72 54.34 40.72C61.475 40.72 67.2625 46.4975 67.2625 53.6325C67.2625 53.94 67.2725 54.25 67.3025 54.5575C67.3425 55.3175 67.4675 56.0575 67.6525 56.7775C67.6525 56.8075 67.6625 56.83 67.6725 56.86L68.0425 58.0725C68.0525 58.0925 68.0625 58.1025 68.0625 58.125L80.1975 97.975Z" fill="#2E22FF"/>
</g>
<mask id="mask8_13_113" style="mask-type:luminance" maskUnits="userSpaceOnUse" x="0" y="0" width="500" height="164">
<path d="M500 0H0V163.133H500V0Z" fill="white"/>
</mask>
<g mask="url(#mask8_13_113)">
<path d="M93.09 54.055C93.09 55.105 92.935 56.1325 92.6375 57.13L80.1975 97.975L68.0675 58.125C68.0675 58.105 68.0575 58.095 68.0475 58.075L67.6775 56.8625C67.6675 56.8325 67.6575 56.81 67.6575 56.78C67.4725 56.06 67.35 55.32 67.3075 54.56C67.2775 54.25 67.2675 53.9425 67.2675 53.635C67.2675 46.4175 73.1675 40.6 80.4175 40.7225C87.5175 40.845 93.09 46.95 93.09 54.055Z" fill="#2E5AE5"/>
</g>
<mask id="mask9_13_113" style="mask-type:luminance" maskUnits="userSpaceOnUse" x="0" y="0" width="500" height="164">
<path d="M500 0H0V163.133H500V0Z" fill="white"/>
</mask>
<g mask="url(#mask9_13_113)">
<path d="M105.983 97.975L100.153 117.117C100.143 117.147 100.133 117.177 100.123 117.21C100.113 117.25 100.093 117.302 100.08 117.342C100.018 117.527 99.9575 117.702 99.885 117.877C99.505 118.772 98.96 119.585 98.2925 120.262C97.47 121.127 96.4325 121.752 95.27 122.082C95.045 122.155 94.8075 122.217 94.57 122.257C94.3325 122.307 94.0875 122.35 93.84 122.37C93.5925 122.4 93.3475 122.41 93.09 122.41C92.8325 122.41 92.585 122.4 92.34 122.37C92.0925 122.35 91.8475 122.307 91.61 122.257C91.3725 122.215 91.1375 122.155 90.91 122.082C89.7475 121.752 88.71 121.127 87.8875 120.262C87.22 119.585 86.675 118.772 86.2925 117.877C86.22 117.702 86.1575 117.527 86.0975 117.342C86.0875 117.3 86.0675 117.25 86.0575 117.21C86.0475 117.18 86.0375 117.147 86.0275 117.117L80.1975 97.975L92.6375 57.13C92.935 56.1325 93.09 55.105 93.09 54.055C93.09 55.105 93.245 56.1325 93.5425 57.13L105.983 97.975Z" fill="#4282EA"/>
</g>
<mask id="mask10_13_113" style="mask-type:luminance" maskUnits="userSpaceOnUse" x="0" y="0" width="500" height="164">
<path d="M500 0H0V163.133H500V0Z" fill="white"/>
</mask>
<g mask="url(#mask10_13_113)">
<path d="M144.753 53.6325C144.753 54.495 144.67 55.34 144.505 56.15C144.34 57.025 144.073 57.8575 143.745 58.6475V58.6575L126.135 116.478L125.94 117.115C125.59 118.277 125.005 119.295 124.233 120.128L124.18 120.177C124.18 120.188 124.18 120.188 124.17 120.188C124.058 120.31 123.933 120.425 123.81 120.537C123.595 120.743 123.358 120.927 123.12 121.082C123.038 121.145 122.955 121.195 122.873 121.247C122.76 121.33 122.648 121.393 122.533 121.452C122.45 121.503 122.358 121.555 122.265 121.598C121.935 121.773 121.575 121.927 121.218 122.04C121.105 122.08 120.993 122.113 120.878 122.132C120.858 122.152 120.838 122.152 120.815 122.152C120.753 122.182 120.68 122.192 120.61 122.202C120.508 122.232 120.395 122.265 120.28 122.275C120.105 122.315 119.93 122.338 119.745 122.357C119.683 122.368 119.613 122.378 119.54 122.378C119.355 122.397 119.17 122.408 118.975 122.408H118.873C118.545 122.408 118.215 122.377 117.895 122.325C114.945 121.955 112.653 119.94 111.808 117.113L105.978 97.97L118.108 58.12C118.108 58.1 118.118 58.09 118.128 58.07L118.498 56.8575C118.508 56.8275 118.518 56.8075 118.518 56.775C118.703 56.055 118.825 55.315 118.868 54.555C118.898 54.245 118.91 53.9375 118.91 53.63C118.91 46.495 124.698 40.7175 131.833 40.7175C138.975 40.72 144.753 46.4975 144.753 53.6325Z" fill="#6ACEE5"/>
</g>
<mask id="mask11_13_113" style="mask-type:luminance" maskUnits="userSpaceOnUse" x="0" y="0" width="500" height="164">
<path d="M500 0H0V163.133H500V0Z" fill="white"/>
</mask>
<g mask="url(#mask11_13_113)">
<path d="M118.915 53.6325C118.915 53.94 118.905 54.25 118.872 54.5575C118.832 55.3175 118.707 56.0575 118.522 56.7775C118.522 56.8075 118.513 56.83 118.503 56.86L118.132 58.0725C118.122 58.0925 118.113 58.1025 118.113 58.1225L105.982 97.9725L93.5425 57.1275C93.245 56.13 93.09 55.1025 93.09 54.0525C93.09 46.9475 98.6625 40.8425 105.765 40.7175C113.015 40.5975 118.915 46.415 118.915 53.6325Z" fill="#00ADE2"/>
</g>
<path d="M201.217 54.1H213.135L191.643 106.522H183.27L161.492 54.1H173.622L187.455 90.35L201.217 54.1Z" fill="white"/>
</svg>
