<svg width="500" height="164" viewBox="0 0 500 164" fill="none" xmlns="http://www.w3.org/2000/svg">
<path d="M500 0H0V163.133H500V0Z" fill="white"/>
<mask id="mask0_13_62" style="mask-type:luminance" maskUnits="userSpaceOnUse" x="0" y="0" width="500" height="164">
<path d="M500 0H0V163.133H500V0Z" fill="white"/>
</mask>
<g mask="url(#mask0_13_62)">
<path d="M217.34 61.7625C215 59.42 215 55.3075 217.34 53.0375C219.68 50.6975 223.795 50.6975 226.137 53.0375C228.477 55.3075 228.477 59.4225 226.137 61.7625C223.797 64.1025 219.682 64.1025 217.34 61.7625ZM226.705 106.525H216.702V67.8625H226.705V106.525Z" fill="#241050"/>
</g>
<mask id="mask1_13_62" style="mask-type:luminance" maskUnits="userSpaceOnUse" x="0" y="0" width="500" height="164">
<path d="M500 0H0V163.133H500V0Z" fill="white"/>
</mask>
<g mask="url(#mask1_13_62)">
<path d="M261.245 104.253C258.052 106.38 254.292 107.445 249.825 107.445C240.957 107.445 236.348 102.195 236.348 92.1925V76.2325H230.035V67.8625H236.42V54.17H246.352V67.8625H259.12V76.2325H246.352V91.555C246.352 96.095 248.198 98.365 251.815 98.365C253.73 98.365 255.93 97.7275 258.27 96.3775L261.245 104.253Z" fill="#241050"/>
</g>
<mask id="mask2_13_62" style="mask-type:luminance" maskUnits="userSpaceOnUse" x="0" y="0" width="500" height="164">
<path d="M500 0H0V163.133H500V0Z" fill="white"/>
</mask>
<g mask="url(#mask2_13_62)">
<path d="M292.99 67.8625H302.495V106.525H292.99V102.055C289.655 105.672 285.542 107.447 280.647 107.447C275.115 107.447 270.503 105.532 266.885 101.63C263.268 97.7275 261.492 92.835 261.492 87.0175C261.492 81.2 263.337 76.3775 266.955 72.6175C270.572 68.7875 275.185 66.87 280.645 66.87C285.47 66.87 289.582 68.715 292.987 72.475V67.8625H292.99ZM290.01 79.2825C287.953 77.0825 285.397 76.02 282.277 76.02C279.085 76.02 276.53 77.0825 274.475 79.2825C272.488 81.4825 271.495 84.1075 271.495 87.1575C271.495 90.2775 272.488 92.9025 274.545 95.1025C276.603 97.3 279.157 98.365 282.277 98.365C285.397 98.365 287.953 97.3 290.01 95.1025C292.068 92.9025 293.13 90.2775 293.13 87.1575C293.133 84.1075 292.068 81.4825 290.01 79.2825Z" fill="#241050"/>
</g>
<mask id="mask3_13_62" style="mask-type:luminance" maskUnits="userSpaceOnUse" x="0" y="0" width="500" height="164">
<path d="M500 0H0V163.133H500V0Z" fill="white"/>
</mask>
<g mask="url(#mask3_13_62)">
<path d="M345.698 72.7575C349.315 76.66 351.09 81.4825 351.09 87.1575C351.09 92.8325 349.245 97.6575 345.628 101.557C342.01 105.46 337.47 107.445 332.008 107.445C327.255 107.445 323.213 105.672 319.878 102.052V122.412H309.875V67.8625H319.807V72.615C323.14 68.785 327.185 66.8675 332.08 66.8675C337.537 66.87 342.078 68.855 345.698 72.7575ZM338.035 95.1025C340.023 92.975 341.015 90.35 341.015 87.2275C341.015 84.105 340.023 81.4825 338.035 79.3525C336.048 77.225 333.495 76.16 330.302 76.16C327.18 76.16 324.628 77.225 322.64 79.3525C320.653 81.48 319.66 84.105 319.66 87.2275C319.66 90.3475 320.653 92.9725 322.64 95.1025C324.628 97.23 327.18 98.295 330.302 98.295C333.495 98.295 336.048 97.23 338.035 95.1025Z" fill="#241050"/>
</g>
<mask id="mask4_13_62" style="mask-type:luminance" maskUnits="userSpaceOnUse" x="0" y="0" width="500" height="164">
<path d="M500 0H0V163.133H500V0Z" fill="white"/>
</mask>
<g mask="url(#mask4_13_62)">
<path d="M360.062 72.7575C363.965 68.785 368.93 66.7975 374.96 66.7975C380.99 66.7975 385.955 68.785 389.858 72.7575C393.76 76.66 395.675 81.4825 395.675 87.1575C395.675 92.9025 393.76 97.7275 389.858 101.627C385.955 105.53 380.99 107.515 374.96 107.515C368.93 107.515 363.965 105.53 360.062 101.627C356.16 97.725 354.245 92.9025 354.245 87.1575C354.245 81.4825 356.16 76.6575 360.062 72.7575ZM374.957 98.2225C378.007 98.2225 380.49 97.16 382.547 95.03C384.605 92.83 385.668 90.205 385.668 87.1575C385.668 84.1075 384.605 81.4825 382.547 79.355C380.49 77.2275 378.007 76.1625 374.957 76.1625C371.907 76.1625 369.353 77.2275 367.295 79.355C365.238 81.4825 364.245 84.1075 364.245 87.1575C364.245 90.2075 365.238 92.8325 367.295 95.03C369.355 97.16 371.907 98.2225 374.957 98.2225Z" fill="#241050"/>
</g>
<mask id="mask5_13_62" style="mask-type:luminance" maskUnits="userSpaceOnUse" x="0" y="0" width="500" height="164">
<path d="M500 0H0V163.133H500V0Z" fill="white"/>
</mask>
<g mask="url(#mask5_13_62)">
<path d="M400.892 106.525V67.8625H410.47V73.04C412.813 68.855 416.357 66.7975 421.11 66.7975C422.67 66.7975 424.23 67.08 425.793 67.6475L424.943 77.225C423.31 76.7275 421.75 76.445 420.332 76.445C414.657 76.445 410.897 80.1325 410.897 88.15V106.522H400.892V106.525Z" fill="#241050"/>
</g>
<mask id="mask6_13_62" style="mask-type:luminance" maskUnits="userSpaceOnUse" x="0" y="0" width="500" height="164">
<path d="M500 0H0V163.133H500V0Z" fill="white"/>
</mask>
<g mask="url(#mask6_13_62)">
<path d="M458.573 104.253C455.38 106.38 451.62 107.445 447.152 107.445C438.285 107.445 433.675 102.195 433.675 92.1925V76.2325H427.362V67.8625H433.747V54.17H443.68V67.8625H456.448V76.2325H443.68V91.555C443.68 96.095 445.525 98.365 449.142 98.365C451.057 98.365 453.258 97.7275 455.598 96.3775L458.573 104.253Z" fill="#241050"/>
</g>
<mask id="mask7_13_62" style="mask-type:luminance" maskUnits="userSpaceOnUse" x="0" y="0" width="500" height="164">
<path d="M500 0H0V163.133H500V0Z" fill="white"/>
</mask>
<g mask="url(#mask7_13_62)">
<path d="M80.1975 97.975L74.3675 117.118C73.525 119.945 71.2325 121.96 68.28 122.33C67.9625 122.38 67.6325 122.413 67.3025 122.413H67.2C67.005 122.413 66.82 122.403 66.635 122.383C66.5625 122.383 66.49 122.373 66.43 122.363C66.245 122.343 66.07 122.32 65.895 122.28C65.7825 122.27 65.67 122.24 65.565 122.208C65.4925 122.198 65.42 122.188 65.36 122.155C65.34 122.155 65.3175 122.155 65.2975 122.135C65.185 122.115 65.0725 122.083 64.9575 122.043C64.5975 121.93 64.2375 121.775 63.91 121.6C63.8175 121.56 63.725 121.507 63.6425 121.455C63.53 121.393 63.4175 121.332 63.3025 121.25C63.22 121.2 63.1375 121.148 63.055 121.085C62.8175 120.93 62.5825 120.745 62.365 120.54C62.2425 120.428 62.1175 120.315 62.005 120.19C61.995 120.19 61.995 120.19 61.995 120.18L61.945 120.13C61.1725 119.298 60.5875 118.28 60.2375 117.118L60.0425 116.48L42.4325 58.66V58.65C42.1025 57.8575 41.835 57.025 41.6725 56.1525C41.5075 55.34 41.425 54.4975 41.425 53.635C41.425 46.5 47.2025 40.7225 54.3375 40.7225C61.4725 40.7225 67.26 46.5 67.26 53.635C67.26 53.9425 67.27 54.2525 67.3025 54.56C67.3425 55.32 67.4675 56.06 67.6525 56.78C67.6525 56.81 67.6625 56.8325 67.6725 56.8625L68.0425 58.075C68.0525 58.095 68.0625 58.105 68.0625 58.125L80.1975 97.975Z" fill="#2E22FF"/>
</g>
<mask id="mask8_13_62" style="mask-type:luminance" maskUnits="userSpaceOnUse" x="0" y="0" width="500" height="164">
<path d="M500 0H0V163.133H500V0Z" fill="white"/>
</mask>
<g mask="url(#mask8_13_62)">
<path d="M93.09 54.055C93.09 55.105 92.935 56.1325 92.6375 57.13L80.1975 97.975L68.065 58.125C68.065 58.105 68.055 58.095 68.045 58.075L67.675 56.8625C67.665 56.8325 67.655 56.81 67.655 56.78C67.47 56.06 67.3475 55.32 67.305 54.56C67.275 54.25 67.2625 53.9425 67.2625 53.635C67.2625 46.4175 73.165 40.6 80.4125 40.7225C87.5175 40.8425 93.09 46.95 93.09 54.055Z" fill="#2E5AE5"/>
</g>
<mask id="mask9_13_62" style="mask-type:luminance" maskUnits="userSpaceOnUse" x="0" y="0" width="500" height="164">
<path d="M500 0H0V163.133H500V0Z" fill="white"/>
</mask>
<g mask="url(#mask9_13_62)">
<path d="M105.983 97.975L100.153 117.117C100.143 117.147 100.133 117.18 100.123 117.21C100.113 117.252 100.093 117.302 100.08 117.342C100.018 117.527 99.9575 117.702 99.885 117.877C99.505 118.772 98.96 119.585 98.2925 120.262C97.47 121.127 96.4325 121.752 95.27 122.082C95.045 122.155 94.8075 122.217 94.57 122.257C94.3325 122.31 94.0875 122.35 93.84 122.37C93.5925 122.4 93.3475 122.412 93.09 122.412C92.8325 122.412 92.585 122.402 92.34 122.37C92.0925 122.35 91.8475 122.307 91.61 122.257C91.3725 122.217 91.1375 122.155 90.91 122.082C89.7475 121.752 88.71 121.127 87.8875 120.262C87.22 119.585 86.675 118.772 86.295 117.877C86.2225 117.702 86.16 117.527 86.1 117.342C86.09 117.302 86.07 117.25 86.06 117.21C86.05 117.18 86.04 117.147 86.03 117.117L80.2 97.975L92.64 57.13C92.9375 56.1325 93.0925 55.105 93.0925 54.055C93.0925 55.105 93.2475 56.1325 93.545 57.13L105.983 97.975Z" fill="#4282EA"/>
</g>
<mask id="mask10_13_62" style="mask-type:luminance" maskUnits="userSpaceOnUse" x="0" y="0" width="500" height="164">
<path d="M500 0H0V163.133H500V0Z" fill="white"/>
</mask>
<g mask="url(#mask10_13_62)">
<path d="M144.75 53.6325C144.75 54.495 144.668 55.34 144.503 56.15C144.338 57.025 144.07 57.8575 143.743 58.6475V58.6575L126.133 116.478L125.938 117.115C125.588 118.277 125.003 119.295 124.23 120.128L124.178 120.18C124.178 120.19 124.178 120.19 124.168 120.19C124.055 120.312 123.93 120.427 123.808 120.54C123.593 120.745 123.355 120.93 123.118 121.085C123.035 121.147 122.953 121.198 122.87 121.25C122.758 121.332 122.645 121.395 122.53 121.455C122.448 121.507 122.355 121.557 122.263 121.6C121.933 121.775 121.573 121.93 121.213 122.043C121.1 122.083 120.988 122.115 120.873 122.135C120.853 122.155 120.83 122.155 120.81 122.155C120.748 122.185 120.675 122.195 120.605 122.205C120.503 122.235 120.39 122.267 120.275 122.277C120.1 122.317 119.925 122.34 119.74 122.36C119.678 122.37 119.605 122.38 119.535 122.38C119.35 122.4 119.165 122.41 118.97 122.41H118.868C118.538 122.41 118.21 122.38 117.89 122.327C114.94 121.957 112.648 119.942 111.803 117.115L105.973 97.9725L118.105 58.1225C118.105 58.1025 118.115 58.0925 118.125 58.0725L118.495 56.86C118.505 56.83 118.515 56.81 118.515 56.7775C118.7 56.0575 118.823 55.3175 118.865 54.5575C118.895 54.2475 118.905 53.94 118.905 53.6325C118.905 46.4975 124.693 40.72 131.828 40.72C138.973 40.72 144.75 46.4975 144.75 53.6325Z" fill="#6ACEE5"/>
</g>
<mask id="mask11_13_62" style="mask-type:luminance" maskUnits="userSpaceOnUse" x="0" y="0" width="500" height="164">
<path d="M500 0H0V163.133H500V0Z" fill="white"/>
</mask>
<g mask="url(#mask11_13_62)">
<path d="M118.915 53.6325C118.915 53.94 118.905 54.25 118.873 54.5575C118.833 55.3175 118.708 56.0575 118.523 56.7775C118.523 56.8075 118.513 56.83 118.503 56.86L118.133 58.0725C118.123 58.0925 118.113 58.1025 118.113 58.1225L105.98 97.9725L93.54 57.1275C93.2425 56.13 93.0875 55.1025 93.0875 54.0525C93.0875 46.9475 98.66 40.84 105.763 40.7175C113.013 40.5975 118.915 46.415 118.915 53.6325Z" fill="#00ADE2"/>
</g>
<path d="M201.217 54.1H213.135L191.64 106.523H183.27L161.492 54.1H173.622L187.455 90.35L201.217 54.1Z" fill="#241050"/>
</svg>
