<svg width="16" height="16" viewBox="0 0 16 16" fill="none" xmlns="http://www.w3.org/2000/svg">
<g id="Vector">
<path d="M11.2 1.68421C10.8168 1.6873 10.4374 1.76348 10.08 1.90905C10.27 2.45398 10.3759 3.02742 10.3936 3.60758C10.6372 3.45316 10.9157 3.37055 11.2 3.36842C11.473 3.36742 11.7416 3.43994 11.9805 3.57909C12.2193 3.71825 12.4203 3.9194 12.5644 4.16342C12.7085 4.40745 12.7909 4.68623 12.8038 4.97324C12.8167 5.26025 12.7596 5.54596 12.6379 5.80318C12.5163 6.06041 12.3341 6.28059 12.1088 6.4428C11.8835 6.60501 11.6225 6.70384 11.3507 6.72989C11.0788 6.75595 10.8052 6.70836 10.5557 6.59166C10.3063 6.47496 10.0894 6.29302 9.9256 6.06316C9.69569 6.59075 9.38758 7.07653 9.0128 7.50232C9.39295 7.87998 9.8552 8.15386 10.3591 8.30002C10.8631 8.44618 11.3934 8.46017 11.9036 8.34077C12.4139 8.22136 12.8886 7.97219 13.2862 7.61505C13.6839 7.25791 13.9923 6.80367 14.1847 6.29204C14.377 5.78041 14.4474 5.22698 14.3896 4.68013C14.3317 4.13327 14.1476 3.60965 13.8531 3.15504C13.5586 2.70042 13.1628 2.32867 12.7003 2.07227C12.2378 1.81587 11.7227 1.68263 11.2 1.68421Z" fill="#241050"/>
<path d="M12 9.26316H10.9888C11.3313 9.77721 11.593 10.3459 11.764 10.9474H12C12.6365 10.9474 13.247 11.2135 13.6971 11.6873C14.1471 12.1611 14.4 12.8037 14.4 13.4737V14.3158H12V15.1579C11.9974 15.4454 11.9476 15.7303 11.8528 16H15.2C15.4122 16 15.6157 15.9113 15.7657 15.7534C15.9157 15.5954 16 15.3812 16 15.1579V13.4737C15.9987 12.3574 15.5769 11.2872 14.827 10.4979C14.0772 9.70853 13.0605 9.2645 12 9.26316Z" fill="#241050"/>
<path d="M5.2 7.57895C4.48799 7.57895 3.79196 7.3567 3.19995 6.94031C2.60793 6.52391 2.14651 5.93208 1.87403 5.23964C1.60156 4.54721 1.53027 3.78527 1.66917 3.05019C1.80808 2.3151 2.15095 1.63988 2.65442 1.10991C3.15788 0.579945 3.79934 0.219033 4.49767 0.0728154C5.19601 -0.0734023 5.91985 0.0016419 6.57766 0.288458C7.23547 0.575274 7.79772 1.06098 8.19329 1.68416C8.58886 2.30733 8.8 3.03999 8.8 3.78947C8.79894 4.79416 8.41932 5.75738 7.74442 6.46781C7.06951 7.17823 6.15445 7.57783 5.2 7.57895ZM5.2 1.68421C4.80444 1.68421 4.41776 1.80768 4.08886 2.03901C3.75996 2.27034 3.50362 2.59914 3.35224 2.98383C3.20087 3.36851 3.16126 3.79181 3.23843 4.20019C3.3156 4.60857 3.50608 4.98369 3.78579 5.27812C4.06549 5.57255 4.42186 5.77305 4.80982 5.85429C5.19778 5.93552 5.59992 5.89383 5.96537 5.73448C6.33082 5.57514 6.64318 5.30531 6.86294 4.9591C7.0827 4.61289 7.2 4.20586 7.2 3.78947C7.2 3.23112 6.98929 2.69564 6.61421 2.30083C6.23914 1.90602 5.73043 1.68421 5.2 1.68421Z" fill="#241050"/>
<path d="M9.6 16H0.8C0.587827 16 0.384344 15.9113 0.234315 15.7534C0.0842854 15.5954 0 15.3812 0 15.1579V12.6316C0.00127029 11.5153 0.423106 10.4451 1.17298 9.65576C1.92285 8.86643 2.93952 8.42239 4 8.42105H6.4C7.46048 8.42239 8.47715 8.86643 9.22702 9.65576C9.97689 10.4451 10.3987 11.5153 10.4 12.6316V15.1579C10.4 15.3812 10.3157 15.5954 10.1657 15.7534C10.0157 15.9113 9.81217 16 9.6 16ZM1.6 14.3158H8.8V12.6316C8.8 11.9616 8.54714 11.319 8.09706 10.8452C7.64697 10.3714 7.03652 10.1053 6.4 10.1053H4C3.36348 10.1053 2.75303 10.3714 2.30294 10.8452C1.85286 11.319 1.6 11.9616 1.6 12.6316V14.3158Z" fill="#241050"/>
</g>
</svg>
