<svg width="16" height="16" viewBox="0 0 16 16" fill="none" xmlns="http://www.w3.org/2000/svg">
<g id="Vector">
<path d="M8.8 16H7.2C6.77565 16 6.36869 15.8314 6.06863 15.5314C5.76857 15.2313 5.6 14.8243 5.6 14.4V14.3288L5.2216 14.1688L5.1712 14.2192C4.87116 14.5192 4.46426 14.6877 4.04 14.6877C3.61574 14.6877 3.20884 14.5192 2.9088 14.2192L1.7776 13.0912C1.47765 12.7912 1.30914 12.3843 1.30914 11.96C1.30914 11.5357 1.47765 11.1288 1.7776 10.8288L1.828 10.7784L1.6712 10.4H1.6C1.17565 10.4 0.768687 10.2314 0.468629 9.93137C0.168571 9.63131 0 9.22435 0 8.8V7.2C0 6.77565 0.168571 6.36869 0.468629 6.06863C0.768687 5.76857 1.17565 5.6 1.6 5.6H1.6712L1.8312 5.2216L1.7808 5.1712C1.48085 4.87116 1.31234 4.46426 1.31234 4.04C1.31234 3.61574 1.48085 3.20884 1.7808 2.9088L2.9088 1.7776C3.20884 1.47765 3.61574 1.30914 4.04 1.30914C4.46426 1.30914 4.87116 1.47765 5.1712 1.7776L5.2224 1.8288L5.6 1.6712V1.6C5.6 1.17565 5.76857 0.768687 6.06863 0.468629C6.36869 0.168571 6.77565 0 7.2 0H8.8C9.22435 0 9.63131 0.168571 9.93137 0.468629C10.2314 0.768687 10.4 1.17565 10.4 1.6V1.6712L10.7776 1.8312L10.8288 1.7808C11.1288 1.48109 11.5355 1.31274 11.9596 1.31274C12.3837 1.31274 12.7904 1.48109 13.0904 1.7808L14.2224 2.9128C14.5224 3.21284 14.6909 3.61974 14.6909 4.044C14.6909 4.46826 14.5224 4.87516 14.2224 5.1752L14.1712 5.2264L14.3312 5.604H14.4C14.8243 5.604 15.2313 5.77257 15.5314 6.07263C15.8314 6.37269 16 6.77965 16 7.204V8.804C16 9.22835 15.8314 9.63531 15.5314 9.93537C15.2313 10.2354 14.8243 10.404 14.4 10.404H14.3288L14.1688 10.7816L14.2192 10.8328C14.5189 11.1328 14.6873 11.5395 14.6873 11.9636C14.6873 12.3877 14.5189 12.7944 14.2192 13.0944L13.0872 14.2264C12.7872 14.5264 12.3803 14.6949 11.956 14.6949C11.5317 14.6949 11.1248 14.5264 10.8248 14.2264L10.7744 14.176L10.396 14.336V14.4C10.396 14.8237 10.228 15.23 9.92879 15.53C9.62959 15.8299 9.22365 15.9989 8.8 16ZM5.0344 12.4288C5.13927 12.4288 5.2431 12.4495 5.34 12.4896L6.7056 13.0552C6.8519 13.1157 6.97697 13.2182 7.06498 13.3498C7.15298 13.4814 7.19997 13.6361 7.2 13.7944V14.4H8.8V13.7944C8.80003 13.6361 8.84702 13.4814 8.93503 13.3498C9.02303 13.2182 9.1481 13.1157 9.2944 13.0552L10.66 12.4896C10.806 12.4291 10.9667 12.4132 11.1218 12.444C11.2768 12.4747 11.4193 12.5507 11.5312 12.6624L11.9592 13.0904L13.0912 11.96L12.6632 11.5312C12.5514 11.4194 12.4753 11.277 12.4444 11.1219C12.4135 10.9669 12.4292 10.8061 12.4896 10.66L13.0552 9.2944C13.1157 9.1481 13.2182 9.02303 13.3498 8.93503C13.4814 8.84702 13.6361 8.80003 13.7944 8.8H14.4V7.2H13.7944C13.6361 7.19997 13.4814 7.15298 13.3498 7.06498C13.2182 6.97697 13.1157 6.8519 13.0552 6.7056L12.4896 5.34C12.4292 5.19388 12.4135 5.03315 12.4444 4.87809C12.4753 4.72303 12.5514 4.58061 12.6632 4.4688L13.0912 4.04L11.96 2.9088L11.5312 3.3368C11.4194 3.44859 11.277 3.52474 11.1219 3.55563C10.9669 3.58653 10.8061 3.57079 10.66 3.5104L9.2944 2.9448C9.1481 2.88433 9.02303 2.78181 8.93503 2.65023C8.84702 2.51864 8.80003 2.3639 8.8 2.2056V1.6H7.2V2.2056C7.19997 2.3639 7.15298 2.51864 7.06498 2.65023C6.97697 2.78181 6.8519 2.88433 6.7056 2.9448L5.34 3.5104C5.19388 3.57079 5.03315 3.58653 4.87809 3.55563C4.72303 3.52474 4.58061 3.44859 4.4688 3.3368L4.04 2.9088L2.9088 4.04L3.3376 4.4688C3.44925 4.5807 3.52525 4.72316 3.55601 4.87822C3.58676 5.03327 3.57089 5.19396 3.5104 5.34L2.9448 6.7056C2.88433 6.8519 2.78181 6.97697 2.65023 7.06498C2.51864 7.15298 2.3639 7.19997 2.2056 7.2H1.6V8.8H2.2056C2.3639 8.80003 2.51864 8.84702 2.65023 8.93503C2.78181 9.02303 2.88433 9.1481 2.9448 9.2944L3.5104 10.66C3.57089 10.806 3.58676 10.9667 3.55601 11.1218C3.52525 11.2768 3.44925 11.4193 3.3376 11.5312L2.9096 11.9592L4.04 13.0912L4.4688 12.6624C4.61893 12.5127 4.82236 12.4286 5.0344 12.4288Z" fill="#241050"/>
<path d="M8 11.2C7.3671 11.2 6.74841 11.0123 6.22218 10.6607C5.69594 10.3091 5.28579 9.80931 5.04359 9.22459C4.80138 8.63986 4.73801 7.99645 4.86149 7.37571C4.98496 6.75497 5.28973 6.18479 5.73726 5.73726C6.18479 5.28973 6.75497 4.98496 7.37571 4.86149C7.99645 4.73801 8.63986 4.80138 9.22459 5.04359C9.80931 5.28579 10.3091 5.69594 10.6607 6.22218C11.0123 6.74841 11.2 7.3671 11.2 8C11.2 8.84869 10.8629 9.66263 10.2627 10.2627C9.66263 10.8629 8.84869 11.2 8 11.2ZM8 6.4C7.68355 6.4 7.37421 6.49384 7.11109 6.66965C6.84797 6.84546 6.64289 7.09535 6.52179 7.38771C6.40069 7.68007 6.36901 8.00177 6.43074 8.31214C6.49248 8.62251 6.64487 8.90761 6.86863 9.13137C7.09239 9.35513 7.37749 9.50752 7.68786 9.56926C7.99823 9.63099 8.31993 9.59931 8.61229 9.47821C8.90466 9.35711 9.15454 9.15203 9.33035 8.88891C9.50616 8.62579 9.6 8.31645 9.6 8C9.6 7.57565 9.43143 7.16869 9.13137 6.86863C8.83131 6.56857 8.42435 6.4 8 6.4Z" fill="#241050"/>
</g>
</svg>
